# xmcd
#
# Track frame offsets:
#	150
#	22831
#	42174
#	61019
#	78454
#	96358
#	114037
#	131817
#	149819
#	168466
#	195673
#	215483
#	239088
#	256063
#	272298
#	291736
#	312231
#
# Disc length: 4358 seconds
#
# Revision: 0
# Processed by: cddbd v1.5.2PL0 Copyright (c) Steve Scherf et al.
# Submitted via: dBpowerAMP V4.0
#
DISCID=f9110411
DTITLE=La Tripulación - Epoca de Oro 2 Lp en 1
DYEAR=2010
DGENRE=Merengue
TTITLE0=El pajarito
TTITLE1=Soy chiquito
TTITLE2=Amandonos
TTITLE3=Niña
TTITLE4=Porque tu eres la reina
TTITLE5=Eran las seis
TTITLE6=Yo no nací para amar
TTITLE7=Suavecito
TTITLE8=Maria Elisa
TTITLE9=La soledad
TTITLE10=Quisiera
TTITLE11=La Loca
TTITLE12=Bailando al ritmo de la lluvia
TTITLE13=Esa pared
TTITLE14=Te digo Adios
TTITLE15=Pero que necesidad
TTITLE16=Los hombres no deben llorar
EXTD=
EXTT0=
EXTT1=
EXTT2=
EXTT3=
EXTT4=
EXTT5=
EXTT6=
EXTT7=
EXTT8=
EXTT9=
EXTT10=
EXTT11=
EXTT12=
EXTT13=
EXTT14=
EXTT15=
EXTT16=
PLAYORDER=
